<svg width="20" height="21" viewBox="0 0 20 21" fill="none" xmlns="http://www.w3.org/2000/svg">
<path fill-rule="evenodd" clip-rule="evenodd" d="M5.74996 8C5.74996 5.65279 7.65275 3.75 9.99996 3.75C12.3472 3.75 14.25 5.65279 14.25 8C14.25 10.3472 12.3472 12.25 9.99996 12.25C7.65275 12.25 5.74996 10.3472 5.74996 8ZM9.99996 2.25C6.82432 2.25 4.24996 4.82436 4.24996 8C4.24996 10.0026 5.27367 11.766 6.82633 12.7956C6.28183 12.9885 5.75396 13.2314 5.24973 13.5224C3.80537 14.3561 2.60581 15.5551 1.77157 16.9991C1.56436 17.3577 1.68713 17.8165 2.04579 18.0237C2.40445 18.2309 2.86318 18.1081 3.07039 17.7495C3.77295 16.5334 4.78316 15.5236 5.99954 14.8216C7.21589 14.1196 8.59556 13.75 9.99996 13.75C9.99998 13.75 10 13.75 10 13.75C11.4045 13.75 12.7842 14.1196 14.0005 14.8217C15.2169 15.5237 16.2271 16.5335 16.9296 17.7496C17.1368 18.1083 17.5955 18.231 17.9542 18.0238C18.3129 17.8166 18.4356 17.3579 18.2284 16.9993C17.3942 15.5552 16.1947 14.3562 14.7504 13.5225C14.2461 13.2315 13.7181 12.9885 13.1736 12.7956C14.7262 11.766 15.75 10.0026 15.75 8C15.75 4.82436 13.1756 2.25 9.99996 2.25Z" fill="#025450"/>
</svg>
